<mxfile host="app.diagrams.net" modified="2021-03-01T14:19:44.703Z" agent="5.0 (X11; Linux x86_64) AppleWebKit/537.36 (KHTML, like Gecko) Chrome/87.0.4280.141 Safari/537.36" etag="PoFcN-erGQe566zsFFJM" version="14.4.3" type="github">
  <diagram id="cIHgYBtKaBF_o8umjTuh" name="Page-1">
    <mxGraphModel dx="1422" dy="833" grid="1" gridSize="10" guides="1" tooltips="1" connect="1" arrows="1" fold="1" page="1" pageScale="1" pageWidth="2000" pageHeight="2000" math="0" shadow="0">
      <root>
        <mxCell id="0" />
        <mxCell id="1" parent="0" />
        <mxCell id="2HphfEl9rEsVirn21HZE-16" value="" style="edgeStyle=none;orthogonalLoop=1;jettySize=auto;html=1;endArrow=none;fontSize=15;" edge="1" parent="1" source="2HphfEl9rEsVirn21HZE-1" target="2HphfEl9rEsVirn21HZE-13">
          <mxGeometry relative="1" as="geometry" />
        </mxCell>
        <mxCell id="2HphfEl9rEsVirn21HZE-19" value="" style="edgeStyle=none;orthogonalLoop=1;jettySize=auto;html=1;endArrow=none;fontSize=15;" edge="1" parent="1" source="2HphfEl9rEsVirn21HZE-1" target="2HphfEl9rEsVirn21HZE-18">
          <mxGeometry relative="1" as="geometry" />
        </mxCell>
        <mxCell id="2HphfEl9rEsVirn21HZE-21" value="" style="edgeStyle=none;orthogonalLoop=1;jettySize=auto;html=1;endArrow=none;fontSize=15;" edge="1" parent="1" source="2HphfEl9rEsVirn21HZE-1" target="2HphfEl9rEsVirn21HZE-20">
          <mxGeometry relative="1" as="geometry" />
        </mxCell>
        <mxCell id="2HphfEl9rEsVirn21HZE-90" value="1" style="edgeStyle=none;orthogonalLoop=1;jettySize=auto;html=1;endArrow=none;fontSize=15;" edge="1" parent="1" source="2HphfEl9rEsVirn21HZE-1" target="2HphfEl9rEsVirn21HZE-89">
          <mxGeometry relative="1" as="geometry" />
        </mxCell>
        <mxCell id="2HphfEl9rEsVirn21HZE-1" value="regions" style="rounded=0;whiteSpace=wrap;html=1;fontSize=15;" vertex="1" parent="1">
          <mxGeometry x="1060" y="367.5" width="120" height="60" as="geometry" />
        </mxCell>
        <mxCell id="2HphfEl9rEsVirn21HZE-23" value="" style="edgeStyle=none;orthogonalLoop=1;jettySize=auto;html=1;endArrow=none;fontSize=15;" edge="1" parent="1" source="2HphfEl9rEsVirn21HZE-2" target="2HphfEl9rEsVirn21HZE-22">
          <mxGeometry relative="1" as="geometry" />
        </mxCell>
        <mxCell id="2HphfEl9rEsVirn21HZE-34" value="" style="edgeStyle=none;orthogonalLoop=1;jettySize=auto;html=1;endArrow=none;fontSize=15;" edge="1" parent="1" source="2HphfEl9rEsVirn21HZE-2" target="2HphfEl9rEsVirn21HZE-33">
          <mxGeometry relative="1" as="geometry" />
        </mxCell>
        <mxCell id="2HphfEl9rEsVirn21HZE-2" value="owners" style="rounded=0;whiteSpace=wrap;html=1;fontSize=15;" vertex="1" parent="1">
          <mxGeometry x="760" y="160" width="120" height="60" as="geometry" />
        </mxCell>
        <mxCell id="2HphfEl9rEsVirn21HZE-25" value="" style="edgeStyle=none;orthogonalLoop=1;jettySize=auto;html=1;endArrow=none;fontSize=15;" edge="1" parent="1" source="2HphfEl9rEsVirn21HZE-3" target="2HphfEl9rEsVirn21HZE-24">
          <mxGeometry relative="1" as="geometry" />
        </mxCell>
        <mxCell id="2HphfEl9rEsVirn21HZE-93" value="你" style="edgeStyle=none;orthogonalLoop=1;jettySize=auto;html=1;endArrow=none;fontSize=15;" edge="1" parent="1" source="2HphfEl9rEsVirn21HZE-3" target="2HphfEl9rEsVirn21HZE-92">
          <mxGeometry relative="1" as="geometry" />
        </mxCell>
        <mxCell id="2HphfEl9rEsVirn21HZE-115" style="edgeStyle=none;orthogonalLoop=1;jettySize=auto;html=1;endArrow=none;fontSize=15;" edge="1" parent="1" source="2HphfEl9rEsVirn21HZE-3" target="2HphfEl9rEsVirn21HZE-114">
          <mxGeometry relative="1" as="geometry" />
        </mxCell>
        <mxCell id="2HphfEl9rEsVirn21HZE-3" value="resturants" style="rounded=0;whiteSpace=wrap;html=1;fontSize=15;" vertex="1" parent="1">
          <mxGeometry x="760" y="370" width="120" height="60" as="geometry" />
        </mxCell>
        <mxCell id="2HphfEl9rEsVirn21HZE-40" value="" style="edgeStyle=none;orthogonalLoop=1;jettySize=auto;html=1;endArrow=none;fontSize=15;" edge="1" parent="1" source="2HphfEl9rEsVirn21HZE-98" target="2HphfEl9rEsVirn21HZE-39">
          <mxGeometry relative="1" as="geometry">
            <mxPoint x="623.7500000000005" y="380" as="sourcePoint" />
          </mxGeometry>
        </mxCell>
        <mxCell id="2HphfEl9rEsVirn21HZE-42" value="" style="edgeStyle=none;orthogonalLoop=1;jettySize=auto;html=1;endArrow=none;fontSize=15;" edge="1" parent="1" source="2HphfEl9rEsVirn21HZE-98" target="2HphfEl9rEsVirn21HZE-41">
          <mxGeometry relative="1" as="geometry">
            <mxPoint x="676.2500000000005" y="380" as="sourcePoint" />
          </mxGeometry>
        </mxCell>
        <mxCell id="2HphfEl9rEsVirn21HZE-44" value="" style="edgeStyle=none;orthogonalLoop=1;jettySize=auto;html=1;endArrow=none;fontSize=15;" edge="1" parent="1" source="2HphfEl9rEsVirn21HZE-5" target="2HphfEl9rEsVirn21HZE-43">
          <mxGeometry relative="1" as="geometry" />
        </mxCell>
        <mxCell id="2HphfEl9rEsVirn21HZE-46" value="" style="edgeStyle=none;orthogonalLoop=1;jettySize=auto;html=1;endArrow=none;fontSize=15;" edge="1" parent="1" source="2HphfEl9rEsVirn21HZE-5" target="2HphfEl9rEsVirn21HZE-45">
          <mxGeometry relative="1" as="geometry" />
        </mxCell>
        <mxCell id="2HphfEl9rEsVirn21HZE-5" value="toppings" style="rounded=0;whiteSpace=wrap;html=1;fontSize=15;" vertex="1" parent="1">
          <mxGeometry x="140" y="420" width="120" height="60" as="geometry" />
        </mxCell>
        <mxCell id="2HphfEl9rEsVirn21HZE-48" value="" style="edgeStyle=none;orthogonalLoop=1;jettySize=auto;html=1;endArrow=none;fontSize=15;" edge="1" parent="1" source="2HphfEl9rEsVirn21HZE-6" target="2HphfEl9rEsVirn21HZE-47">
          <mxGeometry relative="1" as="geometry" />
        </mxCell>
        <mxCell id="2HphfEl9rEsVirn21HZE-50" value="" style="edgeStyle=none;orthogonalLoop=1;jettySize=auto;html=1;endArrow=none;fontSize=15;" edge="1" parent="1" source="2HphfEl9rEsVirn21HZE-6" target="2HphfEl9rEsVirn21HZE-49">
          <mxGeometry relative="1" as="geometry" />
        </mxCell>
        <mxCell id="2HphfEl9rEsVirn21HZE-52" value="" style="edgeStyle=none;orthogonalLoop=1;jettySize=auto;html=1;endArrow=none;fontSize=15;" edge="1" parent="1" source="2HphfEl9rEsVirn21HZE-6" target="2HphfEl9rEsVirn21HZE-51">
          <mxGeometry relative="1" as="geometry" />
        </mxCell>
        <mxCell id="2HphfEl9rEsVirn21HZE-101" style="edgeStyle=none;orthogonalLoop=1;jettySize=auto;html=1;endArrow=none;fontSize=15;" edge="1" parent="1" source="2HphfEl9rEsVirn21HZE-6" target="2HphfEl9rEsVirn21HZE-100">
          <mxGeometry relative="1" as="geometry" />
        </mxCell>
        <mxCell id="2HphfEl9rEsVirn21HZE-103" value="&lt;meta charset=&quot;utf-8&quot;&gt;&lt;span style=&quot;color: rgb(0, 0, 0); font-family: helvetica; font-size: 15px; font-style: normal; font-weight: 400; letter-spacing: normal; text-align: center; text-indent: 0px; text-transform: none; word-spacing: 0px; background-color: rgb(255, 255, 255); display: inline; float: none;&quot;&gt;怎&lt;/span&gt;" style="edgeStyle=none;orthogonalLoop=1;jettySize=auto;html=1;endArrow=none;fontSize=15;" edge="1" parent="1" source="2HphfEl9rEsVirn21HZE-6" target="2HphfEl9rEsVirn21HZE-100">
          <mxGeometry relative="1" as="geometry" />
        </mxCell>
        <mxCell id="2HphfEl9rEsVirn21HZE-105" value="1" style="edgeStyle=none;orthogonalLoop=1;jettySize=auto;html=1;endArrow=none;fontSize=15;" edge="1" parent="1" source="2HphfEl9rEsVirn21HZE-6" target="2HphfEl9rEsVirn21HZE-104">
          <mxGeometry relative="1" as="geometry" />
        </mxCell>
        <mxCell id="2HphfEl9rEsVirn21HZE-6" value="deserts" style="rounded=0;whiteSpace=wrap;html=1;fontSize=15;" vertex="1" parent="1">
          <mxGeometry x="480" y="370" width="120" height="60" as="geometry" />
        </mxCell>
        <mxCell id="2HphfEl9rEsVirn21HZE-54" value="" style="edgeStyle=none;orthogonalLoop=1;jettySize=auto;html=1;endArrow=none;fontSize=15;" edge="1" parent="1" source="2HphfEl9rEsVirn21HZE-8" target="2HphfEl9rEsVirn21HZE-53">
          <mxGeometry relative="1" as="geometry" />
        </mxCell>
        <mxCell id="2HphfEl9rEsVirn21HZE-56" value="" style="edgeStyle=none;orthogonalLoop=1;jettySize=auto;html=1;endArrow=none;fontSize=15;" edge="1" parent="1" source="2HphfEl9rEsVirn21HZE-8" target="2HphfEl9rEsVirn21HZE-55">
          <mxGeometry relative="1" as="geometry" />
        </mxCell>
        <mxCell id="2HphfEl9rEsVirn21HZE-59" value="" style="edgeStyle=none;orthogonalLoop=1;jettySize=auto;html=1;endArrow=none;fontSize=15;" edge="1" parent="1" source="2HphfEl9rEsVirn21HZE-8" target="2HphfEl9rEsVirn21HZE-58">
          <mxGeometry relative="1" as="geometry" />
        </mxCell>
        <mxCell id="2HphfEl9rEsVirn21HZE-81" value="1" style="edgeStyle=none;orthogonalLoop=1;jettySize=auto;html=1;endArrow=none;fontSize=15;" edge="1" parent="1" source="2HphfEl9rEsVirn21HZE-8" target="2HphfEl9rEsVirn21HZE-79">
          <mxGeometry relative="1" as="geometry" />
        </mxCell>
        <mxCell id="2HphfEl9rEsVirn21HZE-84" value="你" style="edgeStyle=none;orthogonalLoop=1;jettySize=auto;html=1;endArrow=none;fontSize=15;" edge="1" parent="1" source="2HphfEl9rEsVirn21HZE-8" target="2HphfEl9rEsVirn21HZE-83">
          <mxGeometry relative="1" as="geometry" />
        </mxCell>
        <mxCell id="2HphfEl9rEsVirn21HZE-8" value="booths" style="rounded=0;whiteSpace=wrap;html=1;fontSize=15;" vertex="1" parent="1">
          <mxGeometry x="760" y="670" width="120" height="60" as="geometry" />
        </mxCell>
        <mxCell id="2HphfEl9rEsVirn21HZE-61" value="" style="edgeStyle=none;orthogonalLoop=1;jettySize=auto;html=1;endArrow=none;fontSize=15;" edge="1" parent="1" source="2HphfEl9rEsVirn21HZE-9" target="2HphfEl9rEsVirn21HZE-60">
          <mxGeometry relative="1" as="geometry" />
        </mxCell>
        <mxCell id="2HphfEl9rEsVirn21HZE-63" value="" style="edgeStyle=none;orthogonalLoop=1;jettySize=auto;html=1;endArrow=none;fontSize=15;" edge="1" parent="1" source="2HphfEl9rEsVirn21HZE-9" target="2HphfEl9rEsVirn21HZE-62">
          <mxGeometry relative="1" as="geometry" />
        </mxCell>
        <mxCell id="2HphfEl9rEsVirn21HZE-65" value="" style="edgeStyle=none;orthogonalLoop=1;jettySize=auto;html=1;endArrow=none;fontSize=15;" edge="1" parent="1" source="2HphfEl9rEsVirn21HZE-9" target="2HphfEl9rEsVirn21HZE-64">
          <mxGeometry relative="1" as="geometry" />
        </mxCell>
        <mxCell id="2HphfEl9rEsVirn21HZE-80" value="1" style="edgeStyle=none;orthogonalLoop=1;jettySize=auto;html=1;endArrow=none;fontSize=15;" edge="1" parent="1" source="2HphfEl9rEsVirn21HZE-9" target="2HphfEl9rEsVirn21HZE-79">
          <mxGeometry relative="1" as="geometry" />
        </mxCell>
        <mxCell id="2HphfEl9rEsVirn21HZE-9" value="bills" style="rounded=0;whiteSpace=wrap;html=1;fontSize=15;" vertex="1" parent="1">
          <mxGeometry x="480" y="670" width="120" height="60" as="geometry" />
        </mxCell>
        <mxCell id="2HphfEl9rEsVirn21HZE-70" value="1" style="edgeStyle=none;orthogonalLoop=1;jettySize=auto;html=1;endArrow=none;fontSize=15;" edge="1" parent="1" source="2HphfEl9rEsVirn21HZE-10" target="2HphfEl9rEsVirn21HZE-67">
          <mxGeometry relative="1" as="geometry" />
        </mxCell>
        <mxCell id="2HphfEl9rEsVirn21HZE-76" value="" style="edgeStyle=none;orthogonalLoop=1;jettySize=auto;html=1;endArrow=none;fontSize=15;" edge="1" parent="1" source="2HphfEl9rEsVirn21HZE-10" target="2HphfEl9rEsVirn21HZE-75">
          <mxGeometry relative="1" as="geometry" />
        </mxCell>
        <mxCell id="2HphfEl9rEsVirn21HZE-10" value="tableBooths" style="shape=ext;margin=3;double=1;whiteSpace=wrap;html=1;align=center;fontSize=15;" vertex="1" parent="1">
          <mxGeometry x="1020" y="660" width="120" height="40" as="geometry" />
        </mxCell>
        <mxCell id="2HphfEl9rEsVirn21HZE-71" value="1" style="edgeStyle=none;orthogonalLoop=1;jettySize=auto;html=1;endArrow=none;fontSize=15;" edge="1" parent="1" source="2HphfEl9rEsVirn21HZE-11" target="2HphfEl9rEsVirn21HZE-66">
          <mxGeometry relative="1" as="geometry" />
        </mxCell>
        <mxCell id="2HphfEl9rEsVirn21HZE-78" value="" style="edgeStyle=none;orthogonalLoop=1;jettySize=auto;html=1;endArrow=none;fontSize=15;" edge="1" parent="1" source="2HphfEl9rEsVirn21HZE-11" target="2HphfEl9rEsVirn21HZE-77">
          <mxGeometry relative="1" as="geometry" />
        </mxCell>
        <mxCell id="2HphfEl9rEsVirn21HZE-11" value="benchBooths" style="shape=ext;margin=3;double=1;whiteSpace=wrap;html=1;align=center;fontSize=15;" vertex="1" parent="1">
          <mxGeometry x="1020" y="710" width="120" height="40" as="geometry" />
        </mxCell>
        <mxCell id="2HphfEl9rEsVirn21HZE-74" value="1" style="edgeStyle=none;orthogonalLoop=1;jettySize=auto;html=1;endArrow=none;fontSize=15;" edge="1" parent="1" source="2HphfEl9rEsVirn21HZE-12" target="2HphfEl9rEsVirn21HZE-72">
          <mxGeometry relative="1" as="geometry" />
        </mxCell>
        <mxCell id="2HphfEl9rEsVirn21HZE-112" value="" style="edgeStyle=none;orthogonalLoop=1;jettySize=auto;html=1;endArrow=none;fontSize=15;" edge="1" parent="1" source="2HphfEl9rEsVirn21HZE-12" target="2HphfEl9rEsVirn21HZE-111">
          <mxGeometry relative="1" as="geometry" />
        </mxCell>
        <mxCell id="2HphfEl9rEsVirn21HZE-12" value="drinks" style="shape=ext;margin=3;double=1;whiteSpace=wrap;html=1;align=center;fontSize=15;" vertex="1" parent="1">
          <mxGeometry x="490" y="150" width="100" height="40" as="geometry" />
        </mxCell>
        <mxCell id="2HphfEl9rEsVirn21HZE-13" value="&lt;u&gt;id&lt;/u&gt;" style="ellipse;whiteSpace=wrap;html=1;rounded=0;fontSize=15;" vertex="1" parent="1">
          <mxGeometry x="1000" y="277.5" width="120" height="80" as="geometry" />
        </mxCell>
        <mxCell id="2HphfEl9rEsVirn21HZE-15" value="" style="endArrow=none;html=1;fontSize=15;" edge="1" parent="1" source="2HphfEl9rEsVirn21HZE-1" target="2HphfEl9rEsVirn21HZE-13">
          <mxGeometry width="50" height="50" relative="1" as="geometry">
            <mxPoint x="1370" y="457.5" as="sourcePoint" />
            <mxPoint x="1420" y="407.5" as="targetPoint" />
          </mxGeometry>
        </mxCell>
        <mxCell id="2HphfEl9rEsVirn21HZE-18" value="code" style="ellipse;whiteSpace=wrap;html=1;rounded=0;fontSize=15;" vertex="1" parent="1">
          <mxGeometry x="1130" y="277.5" width="120" height="80" as="geometry" />
        </mxCell>
        <mxCell id="2HphfEl9rEsVirn21HZE-20" value="name" style="ellipse;whiteSpace=wrap;html=1;rounded=0;fontSize=15;" vertex="1" parent="1">
          <mxGeometry x="1060" y="437.5" width="120" height="80" as="geometry" />
        </mxCell>
        <mxCell id="2HphfEl9rEsVirn21HZE-22" value="name" style="ellipse;whiteSpace=wrap;html=1;rounded=0;fontSize=15;" vertex="1" parent="1">
          <mxGeometry x="830" y="70" width="120" height="80" as="geometry" />
        </mxCell>
        <mxCell id="2HphfEl9rEsVirn21HZE-24" value="&lt;u&gt;id&lt;/u&gt;" style="ellipse;whiteSpace=wrap;html=1;rounded=0;fontSize=15;" vertex="1" parent="1">
          <mxGeometry x="830" y="440" width="120" height="80" as="geometry" />
        </mxCell>
        <mxCell id="2HphfEl9rEsVirn21HZE-32" value="" style="edgeStyle=none;orthogonalLoop=1;jettySize=auto;html=1;endArrow=none;fontSize=15;" edge="1" parent="1" source="2HphfEl9rEsVirn21HZE-28" target="2HphfEl9rEsVirn21HZE-31">
          <mxGeometry relative="1" as="geometry" />
        </mxCell>
        <mxCell id="2HphfEl9rEsVirn21HZE-36" value="" style="edgeStyle=none;orthogonalLoop=1;jettySize=auto;html=1;endArrow=none;fontSize=15;" edge="1" parent="1" source="2HphfEl9rEsVirn21HZE-28" target="2HphfEl9rEsVirn21HZE-35">
          <mxGeometry relative="1" as="geometry" />
        </mxCell>
        <mxCell id="2HphfEl9rEsVirn21HZE-28" value="desertCategories" style="rounded=0;whiteSpace=wrap;html=1;fontSize=15;" vertex="1" parent="1">
          <mxGeometry x="130" y="320" width="140" height="60" as="geometry" />
        </mxCell>
        <mxCell id="2HphfEl9rEsVirn21HZE-31" value="name" style="ellipse;whiteSpace=wrap;html=1;rounded=0;fontSize=15;" vertex="1" parent="1">
          <mxGeometry x="210" y="230" width="120" height="80" as="geometry" />
        </mxCell>
        <mxCell id="2HphfEl9rEsVirn21HZE-33" value="&lt;u&gt;id&lt;/u&gt;" style="ellipse;whiteSpace=wrap;html=1;rounded=0;fontSize=15;" vertex="1" parent="1">
          <mxGeometry x="690" y="70" width="120" height="80" as="geometry" />
        </mxCell>
        <mxCell id="2HphfEl9rEsVirn21HZE-35" value="&lt;u&gt;id&lt;/u&gt;" style="ellipse;whiteSpace=wrap;html=1;rounded=0;fontSize=15;" vertex="1" parent="1">
          <mxGeometry x="70" y="230" width="120" height="80" as="geometry" />
        </mxCell>
        <mxCell id="2HphfEl9rEsVirn21HZE-39" value="offerStart" style="ellipse;whiteSpace=wrap;html=1;rounded=0;fontSize=15;" vertex="1" parent="1">
          <mxGeometry x="680" y="280" width="120" height="80" as="geometry" />
        </mxCell>
        <mxCell id="2HphfEl9rEsVirn21HZE-41" value="offerEnd" style="ellipse;whiteSpace=wrap;html=1;rounded=0;fontSize=15;" vertex="1" parent="1">
          <mxGeometry x="550" y="437.5" width="120" height="80" as="geometry" />
        </mxCell>
        <mxCell id="2HphfEl9rEsVirn21HZE-43" value="name" style="ellipse;whiteSpace=wrap;html=1;rounded=0;fontSize=15;" vertex="1" parent="1">
          <mxGeometry x="210" y="490" width="120" height="80" as="geometry" />
        </mxCell>
        <mxCell id="2HphfEl9rEsVirn21HZE-45" value="&lt;u&gt;id&lt;/u&gt;" style="ellipse;whiteSpace=wrap;html=1;rounded=0;fontSize=15;" vertex="1" parent="1">
          <mxGeometry x="70" y="490" width="120" height="80" as="geometry" />
        </mxCell>
        <mxCell id="2HphfEl9rEsVirn21HZE-47" value="&lt;u&gt;id&lt;/u&gt;" style="ellipse;whiteSpace=wrap;html=1;rounded=0;fontSize=15;" vertex="1" parent="1">
          <mxGeometry x="410" y="280" width="120" height="80" as="geometry" />
        </mxCell>
        <mxCell id="2HphfEl9rEsVirn21HZE-49" value="description" style="ellipse;whiteSpace=wrap;html=1;rounded=0;fontSize=15;" vertex="1" parent="1">
          <mxGeometry x="550" y="280" width="120" height="80" as="geometry" />
        </mxCell>
        <mxCell id="2HphfEl9rEsVirn21HZE-51" value="price" style="ellipse;whiteSpace=wrap;html=1;rounded=0;fontSize=15;" vertex="1" parent="1">
          <mxGeometry x="410" y="440" width="120" height="80" as="geometry" />
        </mxCell>
        <mxCell id="2HphfEl9rEsVirn21HZE-53" value="allowSmoke" style="ellipse;whiteSpace=wrap;html=1;rounded=0;fontSize=15;" vertex="1" parent="1">
          <mxGeometry x="830" y="580" width="120" height="80" as="geometry" />
        </mxCell>
        <mxCell id="2HphfEl9rEsVirn21HZE-55" value="&lt;u&gt;id&lt;/u&gt;" style="ellipse;whiteSpace=wrap;html=1;rounded=0;fontSize=15;" vertex="1" parent="1">
          <mxGeometry x="690" y="580" width="120" height="80" as="geometry" />
        </mxCell>
        <mxCell id="2HphfEl9rEsVirn21HZE-58" value="capacity" style="ellipse;whiteSpace=wrap;html=1;rounded=0;fontSize=15;" vertex="1" parent="1">
          <mxGeometry x="760" y="740" width="120" height="80" as="geometry" />
        </mxCell>
        <mxCell id="2HphfEl9rEsVirn21HZE-60" value="&lt;u&gt;id&lt;/u&gt;" style="ellipse;whiteSpace=wrap;html=1;rounded=0;fontSize=15;" vertex="1" parent="1">
          <mxGeometry x="410" y="580" width="120" height="80" as="geometry" />
        </mxCell>
        <mxCell id="2HphfEl9rEsVirn21HZE-62" value="occurrence" style="ellipse;whiteSpace=wrap;html=1;rounded=0;fontSize=15;" vertex="1" parent="1">
          <mxGeometry x="550" y="580" width="120" height="80" as="geometry" />
        </mxCell>
        <mxCell id="2HphfEl9rEsVirn21HZE-64" value="tips" style="ellipse;whiteSpace=wrap;html=1;rounded=0;fontSize=15;" vertex="1" parent="1">
          <mxGeometry x="480" y="740" width="120" height="80" as="geometry" />
        </mxCell>
        <mxCell id="2HphfEl9rEsVirn21HZE-68" value="1" style="edgeStyle=none;orthogonalLoop=1;jettySize=auto;html=1;endArrow=none;fontSize=15;" edge="1" parent="1" source="2HphfEl9rEsVirn21HZE-66" target="2HphfEl9rEsVirn21HZE-8">
          <mxGeometry relative="1" as="geometry" />
        </mxCell>
        <mxCell id="2HphfEl9rEsVirn21HZE-66" value="is" style="shape=rhombus;double=1;perimeter=rhombusPerimeter;whiteSpace=wrap;html=1;align=center;fontSize=15;" vertex="1" parent="1">
          <mxGeometry x="930" y="710" width="60" height="60" as="geometry" />
        </mxCell>
        <mxCell id="2HphfEl9rEsVirn21HZE-69" value="1" style="edgeStyle=none;orthogonalLoop=1;jettySize=auto;html=1;endArrow=none;fontSize=15;" edge="1" parent="1" source="2HphfEl9rEsVirn21HZE-67" target="2HphfEl9rEsVirn21HZE-8">
          <mxGeometry relative="1" as="geometry" />
        </mxCell>
        <mxCell id="2HphfEl9rEsVirn21HZE-67" value="is" style="shape=rhombus;double=1;perimeter=rhombusPerimeter;whiteSpace=wrap;html=1;align=center;fontSize=15;" vertex="1" parent="1">
          <mxGeometry x="930" y="630" width="60" height="60" as="geometry" />
        </mxCell>
        <mxCell id="2HphfEl9rEsVirn21HZE-73" value="1" style="edgeStyle=none;orthogonalLoop=1;jettySize=auto;html=1;endArrow=none;fontSize=15;" edge="1" parent="1" source="2HphfEl9rEsVirn21HZE-72" target="2HphfEl9rEsVirn21HZE-6">
          <mxGeometry relative="1" as="geometry" />
        </mxCell>
        <mxCell id="2HphfEl9rEsVirn21HZE-72" value="är" style="shape=rhombus;double=1;perimeter=rhombusPerimeter;whiteSpace=wrap;html=1;align=center;fontSize=15;" vertex="1" parent="1">
          <mxGeometry x="510" y="220" width="60" height="60" as="geometry" />
        </mxCell>
        <mxCell id="2HphfEl9rEsVirn21HZE-75" value="code" style="ellipse;whiteSpace=wrap;html=1;fontSize=15;" vertex="1" parent="1">
          <mxGeometry x="1020" y="570" width="120" height="80" as="geometry" />
        </mxCell>
        <mxCell id="2HphfEl9rEsVirn21HZE-77" value="code" style="ellipse;whiteSpace=wrap;html=1;fontSize=15;" vertex="1" parent="1">
          <mxGeometry x="1020" y="760" width="120" height="80" as="geometry" />
        </mxCell>
        <mxCell id="2HphfEl9rEsVirn21HZE-79" value="bellong" style="rhombus;whiteSpace=wrap;html=1;fontSize=15;" vertex="1" parent="1">
          <mxGeometry x="640" y="665" width="70" height="70" as="geometry" />
        </mxCell>
        <mxCell id="2HphfEl9rEsVirn21HZE-85" value="1" style="edgeStyle=none;orthogonalLoop=1;jettySize=auto;html=1;endArrow=none;fontSize=15;" edge="1" parent="1" source="2HphfEl9rEsVirn21HZE-83" target="2HphfEl9rEsVirn21HZE-3">
          <mxGeometry relative="1" as="geometry" />
        </mxCell>
        <mxCell id="2HphfEl9rEsVirn21HZE-83" value="tillhör" style="rhombus;whiteSpace=wrap;html=1;fontSize=15;" vertex="1" parent="1">
          <mxGeometry x="790" y="530" width="60" height="60" as="geometry" />
        </mxCell>
        <mxCell id="2HphfEl9rEsVirn21HZE-87" value="1" style="edgeStyle=none;orthogonalLoop=1;jettySize=auto;html=1;endArrow=none;fontSize=15;" edge="1" parent="1" source="2HphfEl9rEsVirn21HZE-86" target="2HphfEl9rEsVirn21HZE-9">
          <mxGeometry relative="1" as="geometry" />
        </mxCell>
        <mxCell id="2HphfEl9rEsVirn21HZE-88" value="样" style="edgeStyle=none;orthogonalLoop=1;jettySize=auto;html=1;endArrow=none;fontSize=15;" edge="1" parent="1" source="2HphfEl9rEsVirn21HZE-86" target="2HphfEl9rEsVirn21HZE-6">
          <mxGeometry relative="1" as="geometry" />
        </mxCell>
        <mxCell id="2HphfEl9rEsVirn21HZE-86" value="contains" style="rhombus;whiteSpace=wrap;html=1;fontSize=15;" vertex="1" parent="1">
          <mxGeometry x="500" y="510" width="80" height="80" as="geometry" />
        </mxCell>
        <mxCell id="2HphfEl9rEsVirn21HZE-91" value="问" style="edgeStyle=none;orthogonalLoop=1;jettySize=auto;html=1;endArrow=none;fontSize=15;" edge="1" parent="1" source="2HphfEl9rEsVirn21HZE-89" target="2HphfEl9rEsVirn21HZE-3">
          <mxGeometry relative="1" as="geometry" />
        </mxCell>
        <mxCell id="2HphfEl9rEsVirn21HZE-89" value="located" style="rhombus;whiteSpace=wrap;html=1;fontSize=15;" vertex="1" parent="1">
          <mxGeometry x="920" y="360" width="80" height="75" as="geometry" />
        </mxCell>
        <mxCell id="2HphfEl9rEsVirn21HZE-94" value="我" style="edgeStyle=none;orthogonalLoop=1;jettySize=auto;html=1;endArrow=none;fontSize=15;" edge="1" parent="1" source="2HphfEl9rEsVirn21HZE-92" target="2HphfEl9rEsVirn21HZE-2">
          <mxGeometry relative="1" as="geometry" />
        </mxCell>
        <mxCell id="2HphfEl9rEsVirn21HZE-92" value="owns" style="rhombus;whiteSpace=wrap;html=1;fontSize=15;" vertex="1" parent="1">
          <mxGeometry x="790" y="260" width="60" height="60" as="geometry" />
        </mxCell>
        <mxCell id="2HphfEl9rEsVirn21HZE-97" value="你" style="edgeStyle=none;orthogonalLoop=1;jettySize=auto;html=1;endArrow=none;fontSize=15;" edge="1" parent="1" source="2HphfEl9rEsVirn21HZE-98" target="2HphfEl9rEsVirn21HZE-6">
          <mxGeometry relative="1" as="geometry">
            <mxPoint x="480" y="350" as="sourcePoint" />
          </mxGeometry>
        </mxCell>
        <mxCell id="2HphfEl9rEsVirn21HZE-99" value="好" style="edgeStyle=none;orthogonalLoop=1;jettySize=auto;html=1;endArrow=none;fontSize=15;" edge="1" parent="1" source="2HphfEl9rEsVirn21HZE-98" target="2HphfEl9rEsVirn21HZE-3">
          <mxGeometry relative="1" as="geometry" />
        </mxCell>
        <mxCell id="2HphfEl9rEsVirn21HZE-98" value="offers" style="rhombus;whiteSpace=wrap;html=1;fontSize=15;" vertex="1" parent="1">
          <mxGeometry x="650" y="370" width="60" height="60" as="geometry" />
        </mxCell>
        <mxCell id="2HphfEl9rEsVirn21HZE-107" value="1" style="edgeStyle=none;orthogonalLoop=1;jettySize=auto;html=1;endArrow=none;fontSize=15;" edge="1" parent="1" source="2HphfEl9rEsVirn21HZE-100" target="2HphfEl9rEsVirn21HZE-5">
          <mxGeometry relative="1" as="geometry" />
        </mxCell>
        <mxCell id="2HphfEl9rEsVirn21HZE-100" value="have" style="rhombus;whiteSpace=wrap;html=1;fontSize=15;" vertex="1" parent="1">
          <mxGeometry x="340" y="415" width="70" height="70" as="geometry" />
        </mxCell>
        <mxCell id="2HphfEl9rEsVirn21HZE-106" value="么" style="edgeStyle=none;orthogonalLoop=1;jettySize=auto;html=1;endArrow=none;fontSize=15;" edge="1" parent="1" source="2HphfEl9rEsVirn21HZE-104" target="2HphfEl9rEsVirn21HZE-28">
          <mxGeometry relative="1" as="geometry" />
        </mxCell>
        <mxCell id="2HphfEl9rEsVirn21HZE-104" value="have" style="rhombus;whiteSpace=wrap;html=1;fontSize=15;" vertex="1" parent="1">
          <mxGeometry x="340" y="315" width="70" height="70" as="geometry" />
        </mxCell>
        <mxCell id="2HphfEl9rEsVirn21HZE-110" value="" style="edgeStyle=none;orthogonalLoop=1;jettySize=auto;html=1;endArrow=none;fontSize=15;" edge="1" parent="1" source="2HphfEl9rEsVirn21HZE-109" target="2HphfEl9rEsVirn21HZE-9">
          <mxGeometry relative="1" as="geometry" />
        </mxCell>
        <mxCell id="2HphfEl9rEsVirn21HZE-109" value="totalPrice" style="ellipse;whiteSpace=wrap;html=1;align=center;dashed=1;fontSize=15;" vertex="1" parent="1">
          <mxGeometry x="360" y="680" width="100" height="40" as="geometry" />
        </mxCell>
        <mxCell id="2HphfEl9rEsVirn21HZE-111" value="name" style="ellipse;whiteSpace=wrap;html=1;fontSize=15;" vertex="1" parent="1">
          <mxGeometry x="480" y="60" width="120" height="80" as="geometry" />
        </mxCell>
        <mxCell id="2HphfEl9rEsVirn21HZE-114" value="capacity" style="ellipse;whiteSpace=wrap;html=1;fontSize=15;" vertex="1" parent="1">
          <mxGeometry x="690" y="440" width="120" height="80" as="geometry" />
        </mxCell>
      </root>
    </mxGraphModel>
  </diagram>
</mxfile>
